<svg xmlns="http://www.w3.org/2000/svg" viewBox="0 0 512.001 512.001" style="enable-background:new 0 0 512.001 512.001" xml:space="preserve"><path style="fill:#fff" d="M401.37 290.205h51.307v34.205H401.37z"/><path style="fill:#fff" d="M350.063 221.796h34.205v34.205h-34.205zM39.332 213.245 8.017 274.066l99.564 50.343.01-76.939z"/><path style="fill:#fff" d="M19.175 252.395 8.017 274.066l99.564 50.343.004-27.143z"/><path style="fill:#fff" d="M401.37 256H139.705l-20.523-34.204H93.529v119.716H401.37z"/><path style="fill:#fff" d="M144.301 256H401.37v51.307H144.301z"/><path style="fill:#fff" d="M161.938 221.796h68.409v34.205h-68.409z"/><circle style="fill:#fff" cx="307.307" cy="324.409" r="17.102"/><path style="fill:#fff" d="M76.426 136.284h34.205v51.307H76.426zM332.961 25.119h68.409v51.307h-68.409z"/><circle style="fill:#fff" cx="358.614" cy="50.773" r="8.551"/><circle style="fill:#fff" cx="452.677" cy="307.307" r="17.102"/><circle style="fill:#fff" cx="409.921" cy="144.835" r="17.102"/><circle style="fill:#fff" cx="486.882" cy="213.245" r="17.102"/><path d="M34.205 444.126c0 9.136 7.432 16.568 16.568 16.568s16.568-7.432 16.568-16.568-7.432-16.568-16.568-16.568-16.568 7.432-16.568 16.568zM239.433 444.126c0 9.136 7.432 16.568 16.568 16.568s16.568-7.432 16.568-16.568-7.432-16.568-16.568-16.568-16.568 7.432-16.568 16.568zM444.66 444.126c0 9.136 7.432 16.568 16.568 16.568s16.568-7.432 16.568-16.568-7.432-16.568-16.568-16.568-16.568 7.432-16.568 16.568z"/><path d="M495.433 256.535H478.33a8.017 8.017 0 0 0 0 16.034h17.102c9.136 0 16.568-7.432 16.568-16.568v-42.756c0-13.851-11.268-25.119-25.119-25.119a24.95 24.95 0 0 0-12.458 3.321l-41.387-36.785a24.971 24.971 0 0 0 2.003-9.826c0-13.851-11.268-25.119-25.119-25.119-13.851 0-25.119 11.268-25.119 25.119 0 13.28 10.361 24.178 23.423 25.055l29.552 112.298h-28.39V256a8.017 8.017 0 0 0-8.017-8.017h-9.086v-26.188a8.017 8.017 0 0 0-8.017-8.017h-9.086V84.443h26.188a8.017 8.017 0 0 0 8.017-8.017V25.119a8.017 8.017 0 0 0-8.017-8.017h-68.409a8.017 8.017 0 0 0-8.017 8.017v68.409a8.017 8.017 0 0 0 16.034 0v-9.086h18.171v129.336h-9.086a8.017 8.017 0 0 0-8.017 8.017v26.188h-103.68v-26.188a8.017 8.017 0 0 0-8.017-8.017h-68.409a8.017 8.017 0 0 0-8.017 8.017v26.188h-12.682l-14.886-29.773a8.015 8.015 0 0 0-7.17-4.432h-17.637v-18.171h9.086a8.017 8.017 0 0 0 8.017-8.017v-51.307a8.017 8.017 0 0 0-8.017-8.017H76.426a8.017 8.017 0 0 0-8.017 8.017v51.307a8.017 8.017 0 0 0 8.017 8.017h9.086v32.396l-42.511-21.887a8.017 8.017 0 0 0-10.797 3.457L.89 270.396a8.012 8.012 0 0 0 3.457 10.797l81.165 41.787v18.531a8.017 8.017 0 0 0 8.017 8.017H206.6L152.086 367.7H50.773a8.017 8.017 0 0 0-8.017 8.017v18.276C18.556 397.848 0 418.859 0 444.126c0 27.995 22.777 50.772 50.772 50.772s50.772-22.777 50.772-50.772c0-25.268-18.556-46.278-42.756-50.133v-10.259h189.194v10.259c-24.2 3.855-42.756 24.866-42.756 50.133 0 27.995 22.777 50.772 50.772 50.772 27.995 0 50.772-22.777 50.772-50.772 0-25.268-18.556-46.278-42.756-50.133v-18.276a8.017 8.017 0 0 0-8.017-8.017h-53.213l54.514-18.171H357.31l95.898 31.966v12.497c-24.2 3.855-42.756 24.866-42.756 50.133 0 27.995 22.777 50.772 50.772 50.772 27.995 0 50.772-22.777 50.772-50.772 0-25.268-18.556-46.278-42.756-50.133v-18.276a8.017 8.017 0 0 0-5.481-7.605l-58.604-19.535a8.013 8.013 0 0 0 4.227-7.064v-9.086h43.29c13.851 0 25.119-11.268 25.119-25.119 0-13.28-10.361-24.179-23.424-25.055l-29.945-113.791 39.336 34.962a24.98 24.98 0 0 0-2.001 9.821c0 13.851 11.268 25.119 25.119 25.119 3.203 0 6.266-.609 9.086-1.707V256a.527.527 0 0 1-.529.535zM340.978 33.136h52.376v35.273h-52.376V33.136zM84.443 144.301h18.171v35.273H84.443v-35.273zm1.069 299.825c0 19.155-15.584 34.739-34.739 34.739s-34.739-15.584-34.739-34.739c0-19.155 15.584-34.739 34.739-34.739s34.739 15.584 34.739 34.739zm205.228 0c0 19.155-15.584 34.739-34.739 34.739s-34.739-15.584-34.739-34.739c0-19.155 15.584-34.739 34.739-34.739 19.154-.001 34.739 15.584 34.739 34.739zm205.227 0c0 19.155-15.584 34.739-34.739 34.739-19.155 0-34.739-15.584-34.739-34.739 0-19.155 15.584-34.739 34.739-34.739 19.155-.001 34.739 15.584 34.739 34.739zm-95.131-299.291c0-5.01 4.076-9.086 9.086-9.086 5.01 0 9.086 4.076 9.086 9.086s-4.076 9.086-9.086 9.086c-5.011 0-9.086-4.076-9.086-9.086zm-42.756 84.977h18.171v18.171H358.08v-18.171zm-188.125 0h52.376v18.171h-52.376v-18.171zM18.814 270.609l23.975-46.566 42.723 21.996v58.91l-66.698-34.34zm279.408 53.8c0-5.01 4.076-9.086 9.086-9.086s9.086 4.076 9.086 9.086-4.076 9.086-9.086 9.086-9.086-4.076-9.086-9.086zm34.202-.078c-.034-11.014-7.194-20.375-17.1-23.721v-10.406a8.017 8.017 0 0 0-16.034 0v10.405c-9.907 3.346-17.066 12.708-17.1 23.721l-27.492 9.165H144.301v-26.189a8.017 8.017 0 0 0-16.034 0v26.189h-26.722V229.812h12.682l14.04 28.08v15.207a8.017 8.017 0 0 0 16.034 0v-9.082h249.052v69.478h-33.437l-27.492-9.164zm76.963-26.109h19.878a24.984 24.984 0 0 0-1.707 9.086c0 3.203.609 6.266 1.707 9.086h-19.878v-18.172zm43.29 18.171c-5.01 0-9.086-4.076-9.086-9.086s4.076-9.086 9.086-9.086 9.086 4.076 9.086 9.086-4.076 9.086-9.086 9.086zm34.205-94.063c-5.01 0-9.086-4.076-9.086-9.086s4.076-9.086 9.086-9.086 9.086 4.076 9.086 9.086-4.077 9.086-9.086 9.086z"/></svg>